<?xml version="1.0" encoding="utf-8"?>
<!-- Generator: Adobe Illustrator 27.8.0, SVG Export Plug-In . SVG Version: 6.00 Build 0)  -->
<svg version="1.1" id="Calque_1" xmlns="http://www.w3.org/2000/svg" xmlns:xlink="http://www.w3.org/1999/xlink" x="0px" y="0px"
	 viewBox="0 0 422.5 89.9" style="enable-background:new 0 0 422.5 89.9;" xml:space="preserve">
<style type="text/css">
	.st0{fill:#0A2B2B;}
	.st1{fill:#00AFB9;}
	.st2{fill:#FFFFFF;}
	.st4{fill:#550B0B;}
</style>
<g>
	<g>
		<path class="st0" d="M100,59.7h17.4v6.7H92V23h8.1V59.7z"/>
		<path class="st0" d="M133.1,35.1c2.3,0,4.4,0.4,6.3,1.1c1.9,0.7,3.5,1.8,4.8,3.1c1.3,1.4,2.3,3,3.1,5c0.7,2,1.1,4.2,1.1,6.6
			c0,2.4-0.4,4.6-1.1,6.6s-1.7,3.6-3.1,5c-1.3,1.4-2.9,2.4-4.8,3.2c-1.9,0.7-4,1.1-6.3,1.1c-2.3,0-4.4-0.4-6.3-1.1
			c-1.9-0.7-3.5-1.8-4.8-3.2c-1.3-1.4-2.4-3-3.1-5s-1.1-4.2-1.1-6.6c0-2.4,0.4-4.6,1.1-6.6c0.7-2,1.8-3.6,3.1-5
			c1.3-1.4,2.9-2.4,4.8-3.1C128.7,35.5,130.8,35.1,133.1,35.1z M133.1,61.1c2.6,0,4.5-0.9,5.7-2.6c1.2-1.7,1.8-4.2,1.8-7.6
			c0-3.3-0.6-5.9-1.8-7.6c-1.2-1.7-3.1-2.6-5.7-2.6c-2.6,0-4.5,0.9-5.8,2.6c-1.2,1.8-1.9,4.3-1.9,7.6c0,3.3,0.6,5.8,1.9,7.5
			C128.5,60.3,130.5,61.1,133.1,61.1z"/>
		<path class="st0" d="M174.2,42.1c-0.2,0.3-0.4,0.5-0.6,0.7S173,43,172.6,43c-0.4,0-0.8-0.1-1.1-0.3s-0.8-0.5-1.3-0.8
			c-0.5-0.3-1.1-0.5-1.8-0.8c-0.7-0.2-1.5-0.3-2.6-0.3c-1.3,0-2.4,0.2-3.4,0.7c-1,0.5-1.8,1.1-2.4,2c-0.7,0.9-1.1,1.9-1.5,3.2
			c-0.3,1.2-0.5,2.7-0.5,4.2c0,1.6,0.2,3.1,0.5,4.4c0.3,1.3,0.9,2.4,1.5,3.2c0.7,0.9,1.5,1.5,2.4,2c0.9,0.5,2,0.7,3.2,0.7
			c1.2,0,2.1-0.1,2.9-0.4s1.3-0.6,1.8-1c0.5-0.3,0.9-0.7,1.3-1c0.4-0.3,0.8-0.4,1.2-0.4c0.6,0,1,0.2,1.3,0.7l2.1,2.7
			c-0.8,1-1.7,1.8-2.7,2.4c-1,0.7-2,1.2-3,1.6c-1,0.4-2.1,0.7-3.2,0.8c-1.1,0.2-2.2,0.2-3.3,0.2c-1.9,0-3.7-0.4-5.4-1.1
			c-1.7-0.7-3.1-1.7-4.4-3.1s-2.2-3-3-5c-0.7-2-1.1-4.2-1.1-6.7c0-2.3,0.3-4.4,1-6.3c0.6-1.9,1.6-3.6,2.9-5c1.3-1.4,2.8-2.5,4.7-3.3
			c1.9-0.8,4-1.2,6.4-1.2c2.3,0,4.3,0.4,6,1.1c1.7,0.7,3.3,1.8,4.7,3.2L174.2,42.1z"/>
		<path class="st0" d="M203.8,66.4h-3.3c-0.7,0-1.2-0.1-1.7-0.3s-0.7-0.6-0.9-1.3l-0.7-2.2c-0.8,0.7-1.5,1.3-2.3,1.8
			c-0.8,0.5-1.5,1-2.3,1.3c-0.8,0.4-1.7,0.6-2.5,0.8c-0.9,0.2-1.9,0.3-3,0.3c-1.3,0-2.5-0.2-3.6-0.5c-1.1-0.4-2-0.9-2.8-1.6
			s-1.4-1.6-1.8-2.6c-0.4-1-0.7-2.3-0.7-3.6c0-1.2,0.3-2.3,0.9-3.4s1.6-2.2,3-3.1s3.3-1.7,5.7-2.3c2.4-0.6,5.3-0.9,8.8-0.9V47
			c0-2.1-0.4-3.6-1.3-4.6s-2.1-1.5-3.8-1.5c-1.2,0-2.2,0.1-3,0.4c-0.8,0.3-1.5,0.6-2.1,0.9s-1.1,0.7-1.6,0.9c-0.5,0.3-1,0.4-1.7,0.4
			c-0.5,0-0.9-0.1-1.3-0.4c-0.4-0.3-0.7-0.6-0.9-1l-1.3-2.4c3.5-3.2,7.8-4.9,12.8-4.9c1.8,0,3.4,0.3,4.8,0.9s2.6,1.4,3.6,2.5
			c1,1,1.7,2.3,2.2,3.8c0.5,1.5,0.8,3.1,0.8,4.8V66.4z M189.4,61.8c0.8,0,1.5-0.1,2.1-0.2c0.6-0.1,1.2-0.3,1.8-0.6
			c0.6-0.3,1.1-0.6,1.7-1c0.5-0.4,1.1-0.9,1.6-1.4v-5.2c-2.2,0-4,0.1-5.4,0.4c-1.5,0.3-2.6,0.6-3.5,1c-0.9,0.4-1.5,0.9-1.9,1.5
			c-0.4,0.6-0.6,1.2-0.6,1.8c0,1.3,0.4,2.2,1.2,2.8C187.1,61.5,188.1,61.8,189.4,61.8z"/>
		<path class="st0" d="M217.5,21.8v44.6H210V21.8H217.5z"/>
		<path class="st4" d="M262.9,66.4h-6.2c-0.7,0-1.3-0.2-1.7-0.5c-0.5-0.3-0.8-0.8-1-1.3l-3.2-8.8h-18l-3.2,8.8
			c-0.2,0.5-0.5,0.9-0.9,1.3c-0.5,0.4-1,0.6-1.7,0.6h-6.3l17-43.4h8.2L262.9,66.4z M234.8,50h13.8l-5.3-14.4
			c-0.2-0.6-0.5-1.4-0.8-2.3c-0.3-0.9-0.6-1.8-0.9-2.8c-0.3,1-0.6,2-0.8,2.9c-0.3,0.9-0.5,1.6-0.8,2.3L234.8,50z"/>
		<path class="st4" d="M287.1,66.4c-1,0-1.6-0.5-1.9-1.3l-0.6-3c-0.6,0.7-1.3,1.4-2,2s-1.5,1.1-2.3,1.5c-0.8,0.4-1.7,0.7-2.6,1
			c-0.9,0.2-1.9,0.3-3,0.3c-1.7,0-3.2-0.4-4.6-1c-1.4-0.7-2.6-1.7-3.6-3c-1-1.3-1.8-3-2.3-4.9c-0.6-2-0.8-4.2-0.8-6.7
			c0-2.3,0.3-4.4,0.9-6.4c0.6-2,1.5-3.7,2.7-5.1c1.2-1.4,2.6-2.6,4.2-3.4c1.6-0.8,3.4-1.2,5.5-1.2c1.7,0,3.2,0.3,4.4,0.8
			c1.2,0.6,2.3,1.3,3.3,2.2V21.8h7.4v44.6H287.1z M277.2,61c1.5,0,2.8-0.3,3.9-1c1.1-0.6,2.1-1.5,3.1-2.7V43.5
			c-0.8-1-1.8-1.7-2.7-2.2s-2.1-0.6-3.2-0.6c-1.1,0-2.1,0.2-3,0.6s-1.7,1.1-2.3,1.9s-1.1,1.9-1.5,3.2c-0.3,1.3-0.5,2.9-0.5,4.6
			c0,1.8,0.1,3.3,0.4,4.6s0.7,2.3,1.2,3.1s1.2,1.4,2,1.7C275.4,60.8,276.3,61,277.2,61z"/>
		<path class="st4" d="M313.5,66.4h-6.7l-12.2-30.8h6.2c0.5,0,1,0.1,1.4,0.4c0.4,0.3,0.6,0.6,0.8,1l5.9,16.4c0.3,1,0.6,1.9,0.9,2.8
			c0.2,0.9,0.4,1.8,0.6,2.8c0.2-0.9,0.4-1.8,0.6-2.8c0.2-0.9,0.5-1.9,0.9-2.8l6.1-16.4c0.1-0.4,0.4-0.7,0.8-1
			c0.4-0.3,0.8-0.4,1.3-0.4h5.8L313.5,66.4z"/>
		<path class="st4" d="M337.6,26.6c0,0.6-0.1,1.2-0.4,1.8c-0.3,0.6-0.6,1.1-1,1.5c-0.4,0.4-0.9,0.8-1.5,1c-0.6,0.3-1.2,0.4-1.9,0.4
			c-0.6,0-1.2-0.1-1.8-0.4c-0.6-0.2-1.1-0.6-1.5-1s-0.8-0.9-1-1.5c-0.3-0.6-0.4-1.2-0.4-1.8c0-0.7,0.1-1.3,0.4-1.9
			c0.2-0.6,0.6-1.1,1-1.5s0.9-0.8,1.5-1c0.6-0.2,1.2-0.4,1.8-0.4c0.7,0,1.3,0.1,1.9,0.4c0.6,0.3,1.1,0.6,1.5,1
			c0.4,0.4,0.8,0.9,1,1.5C337.5,25.4,337.6,26,337.6,26.6z M336.5,35.6v30.8h-7.4V35.6H336.5z"/>
		<path class="st4" d="M361.7,41.6c-0.2,0.3-0.4,0.5-0.6,0.7c-0.2,0.1-0.5,0.2-0.8,0.2c-0.4,0-0.7-0.1-1.2-0.3
			c-0.4-0.2-0.9-0.4-1.4-0.7s-1.2-0.5-1.8-0.7c-0.7-0.2-1.5-0.3-2.4-0.3c-1.5,0-2.6,0.3-3.4,0.9c-0.8,0.6-1.3,1.4-1.3,2.4
			c0,0.7,0.2,1.2,0.6,1.7c0.4,0.5,1,0.8,1.7,1.2c0.7,0.3,1.5,0.6,2.4,0.9c0.9,0.3,1.8,0.6,2.8,0.9c0.9,0.3,1.9,0.7,2.8,1.1
			c0.9,0.4,1.7,0.9,2.4,1.6s1.3,1.4,1.7,2.3s0.6,1.9,0.6,3.2c0,1.5-0.3,2.8-0.8,4.1c-0.5,1.2-1.3,2.3-2.4,3.2s-2.3,1.6-3.9,2.1
			s-3.3,0.8-5.3,0.8c-1.1,0-2.1-0.1-3.1-0.3c-1-0.2-2-0.5-2.9-0.8c-0.9-0.3-1.8-0.7-2.6-1.2s-1.5-1-2.1-1.5l1.7-2.8
			c0.2-0.3,0.5-0.6,0.8-0.8c0.3-0.2,0.7-0.3,1.1-0.3s0.9,0.1,1.3,0.4c0.4,0.3,0.9,0.5,1.4,0.8c0.5,0.3,1.2,0.6,1.9,0.8
			c0.7,0.3,1.7,0.4,2.8,0.4c0.9,0,1.6-0.1,2.3-0.3c0.6-0.2,1.1-0.5,1.6-0.8s0.7-0.7,0.9-1.2c0.2-0.5,0.3-0.9,0.3-1.4
			c0-0.7-0.2-1.3-0.6-1.8c-0.4-0.5-1-0.9-1.7-1.2c-0.7-0.3-1.5-0.6-2.4-0.9c-0.9-0.3-1.8-0.6-2.8-0.9c-1-0.3-1.9-0.7-2.8-1.1
			c-0.9-0.4-1.7-1-2.4-1.6s-1.3-1.5-1.7-2.4s-0.6-2.1-0.6-3.5c0-1.3,0.2-2.5,0.8-3.6c0.5-1.1,1.2-2.1,2.2-3c1-0.8,2.2-1.5,3.6-2
			c1.5-0.5,3.1-0.8,5-0.8c2.1,0,4.1,0.4,5.8,1c1.7,0.7,3.2,1.6,4.4,2.8L361.7,41.6z"/>
		<path class="st4" d="M381.2,35.1c2.3,0,4.4,0.4,6.3,1.1c1.9,0.7,3.5,1.8,4.8,3.1c1.3,1.4,2.3,3,3.1,5c0.7,2,1.1,4.2,1.1,6.6
			c0,2.4-0.4,4.6-1.1,6.6s-1.7,3.6-3.1,5c-1.3,1.4-2.9,2.4-4.8,3.2c-1.9,0.7-4,1.1-6.3,1.1s-4.4-0.4-6.3-1.1
			c-1.9-0.7-3.5-1.8-4.8-3.2s-2.4-3-3.1-5s-1.1-4.2-1.1-6.6c0-2.4,0.4-4.6,1.1-6.6c0.7-2,1.8-3.6,3.1-5c1.3-1.4,2.9-2.4,4.8-3.1
			C376.9,35.5,378.9,35.1,381.2,35.1z M381.2,61.1c2.6,0,4.5-0.9,5.7-2.6c1.2-1.7,1.8-4.2,1.8-7.6c0-3.3-0.6-5.9-1.8-7.6
			c-1.2-1.7-3.1-2.6-5.7-2.6c-2.6,0-4.5,0.9-5.8,2.6s-1.9,4.3-1.9,7.6c0,3.3,0.6,5.8,1.9,7.5S378.7,61.1,381.2,61.1z"/>
		<path class="st4" d="M400.7,66.4V35.6h4.3c0.8,0,1.3,0.1,1.6,0.4c0.3,0.3,0.5,0.8,0.6,1.4l0.5,3.7c1.1-1.9,2.4-3.4,3.9-4.5
			c1.5-1.1,3.1-1.6,5-1.6c1.5,0,2.8,0.4,3.8,1.1l-1,5.5c-0.1,0.4-0.2,0.6-0.4,0.8c-0.2,0.1-0.5,0.2-0.8,0.2c-0.3,0-0.7-0.1-1.2-0.2
			c-0.5-0.1-1.2-0.2-2.1-0.2c-1.5,0-2.9,0.4-4,1.3c-1.1,0.9-2,2.1-2.8,3.7v19.2H400.7z"/>
	</g>
	<g>
		<path class="st1" d="M0,37.8C0,16.9,16.9,0,37.8,0s37.8,16.9,37.8,37.8s-31.7,52-37.8,52C32.2,89.9,0,58.7,0,37.8z"/>
		<path class="st2" d="M63,37.4c0-13.9-11.3-25.2-25.2-25.2S12.7,23.5,12.7,37.4c0,13.3,10.4,24.2,23.5,25.1v7c0,0,5.7-6.4,11.1-8.8
			c0.1,0,0.1-0.1,0.2-0.1C56.4,56.8,63,47.9,63,37.4z"/>
		<circle class="st1" cx="25.6" cy="37.4" r="3.5"/>
		<circle class="st1" cx="37.8" cy="37.4" r="3.5"/>
		<circle class="st1" cx="50" cy="37.4" r="3.5"/>
	</g>
</g>
</svg>
